<?xml version="1.0" standalone="no"?>
<!DOCTYPE svg PUBLIC "-//W3C//DTD SVG 20010904//EN"
 "http://www.w3.org/TR/2001/REC-SVG-20010904/DTD/svg10.dtd">
<svg version="1.0" xmlns="http://www.w3.org/2000/svg"
 width="1280.000000pt" height="728.000000pt" viewBox="0 0 1280.000000 728.000000"
 preserveAspectRatio="xMidYMid meet">
<metadata>
Created by potrace 1.15, written by Peter Selinger 2001-2017
</metadata>
<g transform="translate(0.000000,728.000000) scale(0.100000,-0.100000)"
fill="#000000" stroke="none">
<path fill = "#ffffff" d="M5715 7266 c-37 -16 -1365 -1356 -1382 -1394 -18 -40 -16 -78 8 -123
26 -52 81 -78 162 -79 l57 0 0 -555 0 -555 -401 0 c-385 0 -403 -1 -434 -20
-18 -11 -35 -30 -39 -43 -3 -12 -6 -113 -6 -223 l0 -202 -117 -4 c-104 -3
-124 -7 -169 -31 -30 -15 -71 -49 -96 -79 -25 -29 -588 -730 -1252 -1558 -665
-828 -1220 -1515 -1235 -1528 -14 -13 -44 -33 -66 -45 -37 -20 -58 -22 -290
-27 -231 -5 -253 -7 -291 -27 -132 -70 -190 -199 -150 -338 14 -45 29 -69 70
-110 81 -81 102 -85 446 -85 339 0 366 5 441 78 26 26 568 709 1204 1517 637
809 1174 1487 1194 1508 69 73 93 80 306 89 105 5 246 11 314 14 113 5 123 4
117 -11 -3 -9 -6 -738 -6 -1620 l0 -1603 -35 -12 c-28 -9 -36 -18 -41 -46 -9
-50 1 -135 17 -145 22 -14 233 -11 247 3 9 9 12 406 12 1725 l0 1713 738 -2
737 -3 3 -1722 2 -1723 50 0 50 0 0 305 0 305 425 0 425 0 2 -303 3 -302 63
-3 62 -3 0 1716 0 1715 255 0 255 0 0 -1703 c0 -1311 3 -1706 12 -1715 18 -18
242 -16 257 2 18 21 10 167 -9 176 -8 4 -24 11 -35 17 -20 10 -20 22 -23 1617
l-2 1606 160 0 c147 0 162 2 180 20 19 19 20 33 20 540 0 507 -1 521 -20 540
-19 19 -33 20 -260 20 l-240 0 0 754 c0 456 4 765 10 780 5 14 21 33 36 42 53
35 78 25 308 -126 l216 -142 0 -114 c0 -100 -2 -115 -17 -120 -83 -27 -124
-58 -152 -113 -76 -150 27 -321 194 -321 156 0 261 163 196 305 -24 53 -91
112 -135 121 l-36 6 0 100 0 100 28 -18 c15 -9 163 -107 330 -217 l302 -199 0
-103 0 -103 -36 -7 c-55 -10 -128 -87 -143 -153 -50 -204 177 -351 348 -224
68 50 99 169 66 250 -21 49 -80 109 -122 123 l-33 11 0 74 c0 68 2 74 18 65 9
-5 146 -95 305 -200 l287 -190 0 -94 0 -95 -30 -12 c-44 -18 -107 -92 -120
-141 -36 -132 56 -264 191 -277 149 -14 269 130 229 277 -14 52 -79 126 -126
143 -33 12 -34 13 -34 70 l0 57 275 -182 275 -182 0 -117 c0 -107 -2 -118 -18
-118 -39 0 -108 -57 -136 -111 -34 -69 -34 -128 -1 -196 67 -133 231 -162 341
-61 88 81 95 213 16 301 -21 22 -56 49 -79 59 l-43 19 0 79 c0 44 4 80 10 80
5 0 142 -88 305 -196 l295 -197 0 -103 0 -103 -39 -12 c-175 -52 -204 -296
-46 -394 40 -25 59 -30 109 -30 194 2 292 215 164 359 -21 25 -54 51 -73 58
l-35 12 0 79 c0 43 4 77 9 75 5 -1 124 -79 265 -173 l256 -170 0 -126 c0 -124
-1 -127 -23 -133 -12 -3 -41 -21 -64 -41 -54 -46 -77 -105 -71 -184 15 -209
290 -270 401 -89 37 59 40 143 9 205 -24 46 -82 100 -117 109 -24 6 -25 9 -25
96 l0 90 28 -18 c333 -217 612 -410 599 -412 -15 -3 -17 -18 -17 -111 l0 -107
-44 -12 c-92 -24 -156 -110 -156 -208 0 -219 277 -300 400 -118 35 52 40 154
12 211 -26 49 -79 97 -126 113 l-36 12 0 104 c0 57 2 104 5 104 3 0 127 -81
276 -180 188 -126 273 -188 279 -206 6 -16 10 -504 10 -1290 0 -1251 0 -1264
20 -1284 25 -25 55 -25 80 0 20 20 20 33 20 1325 l0 1305 -32 34 c-18 19 -265
187 -548 373 -544 359 -1752 1158 -3400 2248 -1492 988 -1399 928 -1440 921
-22 -3 -46 -17 -62 -36 l-28 -30 0 -875 0 -875 -160 0 -160 0 0 560 0 560 64
0 c36 0 77 5 93 11 73 27 115 108 92 177 -9 28 -170 197 -687 719 -436 441
-685 686 -705 692 -39 14 -75 13 -112 -3z m2363 -1742 c59 -38 79 -130 42
-191 -28 -46 -72 -66 -134 -60 -41 4 -55 11 -82 40 -44 48 -51 92 -25 151 34
77 128 105 199 60z m-1558 -132 c19 -9 45 -32 57 -51 23 -34 23 -37 23 -365 0
-364 -2 -375 -63 -420 -27 -20 -43 -21 -336 -24 -268 -3 -309 -1 -321 12 -11
14 -63 16 -406 16 l-394 0 -20 33 c-19 30 -20 51 -20 377 0 328 1 347 20 378
39 63 18 61 755 62 618 0 673 -1 705 -18z m2276 -307 c115 -75 61 -255 -77
-255 -75 0 -145 78 -136 152 13 102 129 159 213 103z m723 -442 c33 -24 61
-79 61 -118 0 -40 -32 -90 -72 -115 -93 -56 -216 21 -205 129 11 107 132 165
216 104z m-5331 -229 l22 -15 0 -409 0 -409 -22 -15 c-15 -11 -45 -16 -90 -16
-38 0 -68 2 -68 4 0 2 9 23 20 47 17 39 20 66 20 238 0 244 8 231 -142 231
l-108 0 0 164 c0 209 -13 196 195 196 120 0 155 -3 173 -16z m370 -421 l-3
-438 -103 0 c-91 0 -105 2 -118 19 -11 16 -14 90 -14 418 0 478 -13 438 140
438 l100 0 -2 -437z m2710 421 l22 -15 0 -405 c0 -391 -1 -405 -20 -424 -18
-18 -33 -20 -160 -20 l-140 0 0 440 0 440 138 0 c108 0 142 -3 160 -16z m522
-4 c19 -19 20 -33 20 -420 0 -387 -1 -401 -20 -420 -18 -18 -33 -20 -180 -20
-147 0 -162 2 -180 20 -19 19 -20 33 -20 420 0 387 1 401 20 420 18 18 33 20
180 20 147 0 162 -2 180 -20z m2349 -238 c124 -63 93 -241 -45 -258 -50 -6
-101 19 -132 66 -19 28 -23 44 -19 83 9 98 109 154 196 109z m679 -436 c87
-45 105 -153 36 -221 -58 -58 -140 -56 -199 5 -39 40 -46 115 -16 163 37 60
119 84 179 53z m-4088 -511 l0 -225 -425 0 -425 0 0 218 c0 120 3 222 7 225 3
4 195 7 425 7 l418 0 0 -225z m4737 65 c44 -27 65 -62 65 -113 1 -58 -26 -102
-80 -128 -58 -29 -104 -19 -154 31 -33 33 -38 44 -38 84 0 26 7 60 15 77 34
64 128 89 192 49z m-4737 -640 l0 -210 -422 2 -423 3 -3 208 -2 207 425 0 425
0 0 -210z m5411 165 c43 -23 69 -71 69 -127 0 -39 -6 -54 -31 -82 -97 -111
-274 -19 -236 124 11 42 23 58 62 82 37 22 96 23 136 3z m-5411 -795 l0 -240
-425 0 -425 0 0 233 c0 129 3 237 7 240 3 4 195 7 425 7 l418 0 0 -240z m0
-545 l0 -255 -422 2 -423 3 -3 240 c-1 132 0 245 2 252 4 10 95 13 426 13
l420 0 0 -255z m0 -580 l0 -225 -425 0 -425 0 0 218 c0 120 3 222 7 225 3 4
195 7 425 7 l418 0 0 -225z"/>
</g>
</svg>
